<svg width="76" height="95" viewBox="0 0 76 95" fill="none" xmlns="http://www.w3.org/2000/svg">
<g id="about">
<path id="path214" d="M58.5482 50.4748C58.2948 50.6988 58.0549 50.9175 57.8015 51.1322C57.5349 51.3522 57.2815 51.5695 57.0148 51.7828C56.4682 52.2175 55.9082 52.6348 55.3349 53.0348L43.5082 77.3415L41.1482 63.3455L44.6548 57.7201C44.2281 57.8135 43.8014 57.8988 43.3614 57.9748C42.2548 58.1708 41.1349 58.3055 40.0015 58.3748C39.3749 58.4148 38.7482 58.4428 38.1082 58.4428C35.6815 58.4428 33.3215 58.1455 31.0548 57.6028L34.6148 63.3495L32.3881 77.5962L19.2815 51.8415C18.6815 51.3615 18.0949 50.8575 17.5349 50.3308L17.2948 50.5415C-0.251892 65.7162 -0.0117873 92.2708 0.00154601 93.3922L0.0148273 94.3335H75.1082L75.0682 93.3375C73.8282 62.6575 61.5615 52.5122 58.5482 50.4748Z" fill="#4D4E50"/>
<path id="path216" d="M38.1081 0.000192372C22.5748 0.000192372 9.92139 12.6468 9.92139 28.1868C9.92139 43.7295 22.5748 56.3735 38.1081 56.3735C53.6548 56.3735 66.2947 43.7295 66.2947 28.1868C66.2947 12.6468 53.6548 0.000192372 38.1081 0.000192372Z" fill="#4D4E50"/>
</g>
</svg>
