<svg width="113" height="113" viewBox="0 0 113 113" fill="none" xmlns="http://www.w3.org/2000/svg">
<g clip-path="url(#clip0_163_71)">
<path d="M59.1043 64.7137C57.7253 66.0926 55.4918 66.0926 54.1111 64.7137L51.3214 61.924L40.5829 72.3906H72.5442L61.8092 62.0105L59.1043 64.7137ZM78.0512 40.6094H35.12L56.5 61.7969L78.0512 40.6094ZM31.7812 42.3856V72.3906H35.4202L48.7118 59.3162L31.7812 42.3856ZM77.7952 72.3906H81.2188V42.601L64.5018 59.3162L77.7952 72.3906ZM56.5 0C25.2961 0 0 25.2961 0 56.5C0 87.7039 25.2961 113 56.5 113C87.7039 113 113 87.7039 113 56.5C113 25.2961 87.7039 0 56.5 0ZM84.75 72.3906C84.75 74.3399 83.168 75.9219 81.2188 75.9219H31.7812C29.832 75.9219 28.25 74.3399 28.25 72.3906V40.6094C28.25 38.6601 29.832 37.0781 31.7812 37.0781H81.2188C83.168 37.0781 84.75 38.6601 84.75 40.6094V72.3906Z" fill="#DBA423"/>
</g>
<defs>
<clipPath id="clip0_163_71">
<rect width="113" height="113" fill="white"/>
</clipPath>
</defs>
</svg>
