<svg width="95" height="83" viewBox="0 0 95 83" fill="none" xmlns="http://www.w3.org/2000/svg">
<path id="home" d="M78.0137 82.7026C79.6937 82.7026 81.0671 81.3373 81.0671 79.6479V46.9813H89.0938H89.1071C92.0404 46.9813 94.4137 44.6053 94.4137 41.6733C94.4137 39.9999 93.6405 38.504 92.4271 37.5306L82.0404 28.528V13.5493C82.0404 11.796 80.6271 10.3746 78.8804 10.3746H72.3071C70.5604 10.3746 69.1338 11.796 69.1338 13.5493V17.324L50.6804 1.29997C48.6804 -0.433361 45.7204 -0.433361 43.7338 1.29997L1.82715 37.6679C0.160479 39.1173 -0.439547 41.4573 0.333786 43.5346C1.12045 45.6066 3.09376 46.9813 5.30709 46.9813H13.3338V79.6479C13.3338 81.3373 14.7071 82.7026 16.4005 82.7026H34.4538V58.9533C34.4538 55.596 37.1738 52.8746 40.5205 52.8746H53.8938C57.2538 52.8746 59.9738 55.596 59.9738 58.9533V82.7026H78.0137Z" fill="#4D4E50"/>
</svg>
