<svg width="101" height="90" viewBox="0 0 101 90" fill="none" xmlns="http://www.w3.org/2000/svg">
<g id="Group 30">
<path id="path486" d="M0.893066 28.6921L5.26637 34.1055L48.7597 87.9189L30.7731 28.6921H0.893066Z" fill="#4D4E50"/>
<path id="path490" d="M52.0132 87.7852L95.3998 34.105L99.7732 28.6917H71.5998L52.0132 87.7852Z" fill="#4D4E50"/>
<path id="path494" d="M82.8265 -0.000245481H51.5732L70.7998 25.7051L82.8265 -0.000245481Z" fill="#4D4E50"/>
<path id="path496" d="M16.1998 0.957179L0.666504 26.4785H29.7466L16.1998 0.957179Z" fill="#4D4E50"/>
<path id="path498" d="M99.9864 26.4785L84.4663 0.981186L72.5464 26.4785H99.9864Z" fill="#4D4E50"/>
<path id="path502" d="M49.1331 -0.000245481H17.8799L31.5199 25.7051L49.1331 -0.000245481Z" fill="#4D4E50"/>
<path id="path504" d="M50.3601 1.69585L33.3735 26.4785H68.9069L50.3601 1.69585Z" fill="#4D4E50"/>
<path id="path506" d="M50.3734 86.7591L32.7333 28.6922H69.6134L50.3734 86.7591ZM50.36 1.69617L68.9068 26.4788H33.3734L50.36 1.69617ZM100.667 27.5855L99.9867 26.4788H72.5467L84.4667 0.981508L83.8801 0.00151089V0.000176255H82.8267L70.8 25.7055L51.5734 0.000176255H49.1333L31.5201 25.7055L17.8801 0.000176255H16.7867L16.2 0.9575L29.7467 26.4788H0.666667L0 27.5855L0.893359 28.6922H30.7734L48.76 87.919L50.3333 89.8652L52.0134 87.7856L71.6 28.6922H99.7734L100.667 27.5855Z" fill="white"/>
<path id="path508" d="M50.373 89.8652L69.613 28.6922H32.7329L50.373 89.8652Z" fill="#4D4E50"/>
</g>
</svg>
