<svg width="74" height="109" viewBox="0 0 74 109" fill="none" xmlns="http://www.w3.org/2000/svg">
<g id="location">
<path id="path80" d="M53.9163 32.2666C53.8763 32.0133 53.8496 31.7599 53.7963 31.5066C53.7563 31.3066 53.703 31.1332 53.6496 30.9466L53.4896 30.3333C53.4496 30.16 53.4097 29.9999 53.3697 29.8399C53.2897 29.5866 53.1964 29.36 53.103 29.12L52.903 28.56C52.863 28.4533 52.823 28.3333 52.783 28.2399C52.6363 27.9066 52.4763 27.5866 52.3163 27.2666L52.143 26.9066C52.1163 26.8399 52.0896 26.7733 52.0496 26.7066C51.8363 26.3199 51.6097 25.9466 51.3697 25.5733C51.3297 25.5199 51.2764 25.44 51.2364 25.36C50.9164 24.8667 50.6096 24.4799 50.3163 24.1066L50.1963 23.9466C49.8763 23.5466 49.5163 23.1467 49.1163 22.76L49.0229 22.6399C45.8096 19.4133 41.4497 17.5734 36.8097 17.52L36.6097 17.5066C26.9857 17.5066 19.1323 25.3733 19.1323 35.0267C19.1323 44.6667 26.975 52.5067 36.6097 52.52H36.8229C41.4496 52.4667 45.8097 50.6266 49.0763 47.3333C49.5163 46.8933 49.8763 46.4933 50.183 46.1066C50.2363 46.0266 50.2763 45.9734 50.3163 45.92C50.6096 45.56 50.9163 45.1733 51.183 44.76C51.2763 44.6 51.3297 44.5333 51.3697 44.4666C51.6097 44.0933 51.8363 43.72 52.0496 43.32C52.0896 43.2667 52.1163 43.2132 52.143 43.1466C52.183 43.0532 52.223 42.96 52.2763 42.8666L52.343 42.72C52.503 42.4134 52.6496 42.1199 52.783 41.8132C52.823 41.7066 52.8629 41.6 52.8896 41.4933L53.103 40.92C53.1964 40.68 53.2897 40.4532 53.3697 40.2132C53.4097 40.0399 53.4496 39.8799 53.4896 39.7066L53.6629 39.0799C53.7029 38.9066 53.7563 38.7199 53.7963 38.5466C53.8496 38.2799 53.8763 38.0266 53.9163 37.7733L54.0097 37.16C54.023 37.04 54.0496 36.9199 54.0629 36.8132C54.1163 36.2132 54.143 35.6133 54.143 35.0267C54.143 34.4267 54.1163 33.8266 54.0629 33.2399C54.0496 33.1199 54.023 32.9999 54.0097 32.8799L53.9163 32.2666Z" fill="#4D4E50"/>
<path id="path82" d="M57.2893 37.1336C57.276 37.3336 57.2494 37.5202 57.2094 37.7069L57.1427 38.2002C57.0894 38.5336 57.0493 38.867 56.9827 39.187C56.9293 39.4403 56.8626 39.6935 56.796 39.9468L56.6626 40.4669C56.6093 40.7069 56.5427 40.9469 56.476 41.1735C56.3827 41.4802 56.2627 41.7868 56.1427 42.0802L55.9694 42.5735C55.9161 42.7335 55.8493 42.9069 55.7827 43.0669C55.6227 43.4536 55.436 43.8135 55.2626 44.1735L55.1027 44.5069C55.0361 44.6269 54.9827 44.7602 54.916 44.8802C54.6627 45.3335 54.3827 45.7869 54.1027 46.2269C53.9961 46.4003 53.9427 46.4936 53.8893 46.587C53.5693 47.0536 53.2226 47.5203 52.8626 47.9603C52.796 48.0536 52.756 48.1069 52.716 48.1603C52.3293 48.6269 51.9027 49.1069 51.4493 49.5603C47.516 53.5336 42.356 55.7202 36.8493 55.7735C36.7827 55.7735 36.7161 55.7869 36.6361 55.7869C25.1907 55.7869 15.8747 46.4669 15.8747 35.0269C15.8747 23.5736 25.1907 14.2536 36.6361 14.2536L36.8493 14.2669C42.356 14.3202 47.516 16.5068 51.3827 20.4135L51.476 20.5069C51.9427 20.9735 52.3427 21.4269 52.7027 21.8669C52.7561 21.9336 52.7961 21.987 52.8361 22.0536C53.2227 22.5203 53.5693 22.9869 53.8893 23.4669C53.9427 23.5469 53.996 23.6402 54.0493 23.7336C54.396 24.2536 54.6627 24.7069 54.916 25.1603C54.9827 25.2936 55.0361 25.4135 55.1027 25.5468L55.1827 25.7069C55.4227 26.1869 55.6093 26.5735 55.7827 26.9735C55.8493 27.1335 55.916 27.3069 55.9827 27.4936L56.1427 27.9603C56.2627 28.2536 56.3827 28.5602 56.476 28.8669C56.5427 29.0936 56.6093 29.3335 56.6626 29.5735L56.796 30.0936C56.8626 30.3469 56.9293 30.6003 56.9827 30.8536C57.0493 31.1736 57.0894 31.5069 57.1427 31.8402L57.2094 32.3336C57.2494 32.5202 57.276 32.7069 57.2893 32.9069C57.3693 33.6002 57.396 34.3203 57.396 35.0269C57.396 35.7203 57.3693 36.4269 57.2893 37.1336ZM67.2227 57.9336C67.396 57.6536 67.5827 57.3469 67.8361 56.9603C67.8761 56.9203 67.9026 56.8668 67.9293 56.8135C68.396 55.9468 69.116 54.6802 69.1427 54.6135C71.996 49.0268 73.4493 43.0003 73.4493 36.7203C73.4493 36.0403 73.436 35.3736 73.396 34.7203C73.396 34.427 73.3694 34.147 73.3427 33.8536L73.316 33.2936C73.3027 33.1069 73.2894 32.9202 73.276 32.7468C73.2494 32.5202 73.2226 32.2803 73.196 32.0536L73.1427 31.5468C73.116 31.3068 73.0893 31.0668 73.0626 30.8135C73.036 30.6268 73.0094 30.4403 72.9694 30.2536L72.9027 29.7603C72.8494 29.4803 72.8094 29.2135 72.7694 28.9468C72.7294 28.7202 72.6761 28.5069 72.6361 28.2936L72.516 27.7069C72.476 27.5069 72.436 27.2935 72.396 27.1069C72.3293 26.8135 72.2493 26.5335 72.1827 26.2402L72.0493 25.7603C72.0093 25.6136 71.9827 25.4669 71.9427 25.3069C71.8494 25.0002 71.756 24.6936 71.6626 24.387L71.5427 24.0002C71.4894 23.8536 71.4493 23.6936 71.396 23.5603C71.3026 23.2669 71.196 22.9602 71.076 22.6669L70.9427 22.2669C70.8894 22.1336 70.836 21.9869 70.7827 21.8669C70.6627 21.5336 70.5293 21.2002 70.3827 20.8802L70.2227 20.5203C70.1827 20.4136 70.1427 20.3068 70.1027 20.2135C69.9027 19.7735 69.7027 19.347 69.4893 18.9203L69.3427 18.6135C69.116 18.1868 68.8894 17.7735 68.6094 17.2802L68.5027 17.0802C68.2494 16.6402 67.9827 16.2136 67.676 15.7203C67.6627 15.707 67.6093 15.6003 67.596 15.587C67.316 15.1603 67.0227 14.7335 66.7027 14.2802C66.6894 14.2668 66.636 14.1736 66.6227 14.1603C66.3027 13.7203 65.9693 13.2936 65.6493 12.8936C65.636 12.8669 65.5827 12.8003 65.5694 12.787C65.2094 12.347 64.8493 11.9202 64.4493 11.4802C64.076 11.0535 63.676 10.6402 63.276 10.2402C63.276 10.2269 63.276 10.2269 63.276 10.2269C56.596 3.53359 47.4093 0.000234313 36.7293 0.000234313C15.1026 0.000234313 0 15.0936 0 36.7203C0 43.4003 1.71064 50.0135 4.93997 55.8135L5.49062 56.8269C5.51329 56.8669 5.53329 56.9068 5.55729 56.9468L6.48008 58.3603C6.58274 58.5203 6.68397 58.6802 6.73997 58.7468L30.232 98.231H30.2147L35.6626 107.386C35.956 107.879 36.4893 108.18 37.0626 108.18C37.6493 108.178 38.1693 107.869 38.4626 107.369L43.7694 98.231L66.676 58.8002C66.876 58.4936 67.0493 58.2269 67.2227 57.9336Z" fill="#4D4E50"/>
</g>
</svg>
