<svg width="99" height="83" viewBox="0 0 99 83" fill="none" xmlns="http://www.w3.org/2000/svg">
<path id="portfolio" d="M32.9933 10.7718C32.9933 9.29179 34.2 8.08645 35.68 8.08645H63.1373C64.6173 8.08645 65.8227 9.29179 65.8227 10.7718V15.8331H58.9147H57.5573H55.18H43.636H41.26H39.9013H32.9933V10.7718ZM58.9147 80.0636H57.5573V18.0771H58.9147V80.0636ZM55.18 80.0636H43.636V18.0771H55.18V80.0636ZM41.26 80.0636H39.9013V18.0771H41.26V80.0636ZM78.08 82.3174V82.3038H90.7307C95.188 82.3038 98.8147 78.6773 98.8147 74.2235V23.9171C98.8147 19.4638 95.188 15.8331 90.7307 15.8331H73.908V10.7718C73.908 4.83312 69.0773 -0.00021482 63.1373 -0.00021482H35.68C29.7413 -0.00021482 24.908 4.83312 24.908 10.7718V15.8331H8.084C3.62667 15.8331 0 19.4638 0 23.9171V74.2235C0 78.6773 3.62667 82.3038 8.084 82.3038H26.952V82.3174H78.08Z" fill="#4D4E50"/>
</svg>
