<svg width="66" height="81" viewBox="0 0 66 81" fill="none" xmlns="http://www.w3.org/2000/svg">
<g id="resume">
<path id="path30" d="M53.2893 20.8903H12.5493V17.577H53.2893V20.8903ZM53.2893 32.4863H12.5493V29.1717H53.2893V32.4863ZM53.2893 44.0823H12.5493V40.769H53.2893V44.0823ZM4.81465 -0.000320705C2.15998 -0.000320705 0 2.1583 0 4.81563V75.977C0 78.6316 2.15998 80.793 4.81465 80.793H47.7893V71.337C47.7893 67.1663 51.1813 63.7743 55.3519 63.7743H65.8387V4.81563C65.8387 2.1583 63.6786 -0.000320705 61.024 -0.000320705H4.81465Z" fill="#4D4E50"/>
<path id="path32" d="M50.5376 71.3371V78.9824L63.7536 66.5211H55.3522C52.6976 66.5211 50.5376 68.6824 50.5376 71.3371Z" fill="#4D4E50"/>
</g>
</svg>
