<svg width="116" height="116" viewBox="0 0 116 116" fill="none" xmlns="http://www.w3.org/2000/svg">
<path d="M58.5 2C27.2865 2 2 27.2901 2 58.5C2 89.7099 27.2901 115 58.5 115C89.7135 115 115 89.7099 115 58.5C115 27.2901 89.7099 2 58.5 2ZM86.2506 40.708L76.9773 84.4062C76.292 87.5046 74.4476 88.2555 71.8741 86.7974L57.7491 76.3868L50.9363 82.9481C50.1854 83.699 49.5475 84.3369 48.0894 84.3369L49.0918 69.9604L75.2677 46.3106C76.4087 45.3082 75.0162 44.7395 73.5108 45.7419L41.16 66.1075L27.2172 61.7551C24.1881 60.8001 24.1188 58.726 27.8551 57.2679L82.3284 36.2609C84.8582 35.3496 87.0671 36.8769 86.247 40.7043L86.2506 40.708Z" fill="#DBA423"/>
</svg>
