<svg width="113" height="113" viewBox="0 0 113 113" fill="none" xmlns="http://www.w3.org/2000/svg">
<g clip-path="url(#clip0_162_36)">
<path d="M56.5 0C25.2959 0 0 25.2959 0 56.5C0 87.7041 25.2959 113 56.5 113C87.7041 113 113 87.7041 113 56.5C113 25.2959 87.7041 0 56.5 0ZM86.5957 75.6791H79.4262C78.6497 75.68 77.883 75.5058 77.183 75.1696C76.4831 74.8333 75.868 74.3436 75.3834 73.7369C73.2333 71.0375 68.9975 66.2511 64.5501 64.1953C64.2926 64.0747 64.0087 64.021 63.7249 64.0391C63.4411 64.0573 63.1664 64.1467 62.9262 64.2991C62.6861 64.4515 62.4883 64.662 62.351 64.9111C62.2138 65.1602 62.1415 65.4399 62.1409 65.7243V72.815C62.141 73.1911 62.067 73.5635 61.9232 73.911C61.7793 74.2585 61.5684 74.5742 61.3025 74.8402C61.0366 75.1062 60.7209 75.3171 60.3735 75.4611C60.026 75.605 59.6536 75.6791 59.2775 75.6791H55.9624C51.6512 75.6791 42.3671 73.0547 34.9693 62.2782C28.666 53.097 25.8563 45.9815 24.2178 40.2123C24.1225 39.8742 24.1069 39.5186 24.1722 39.1734C24.2375 38.8282 24.3819 38.5029 24.594 38.2229C24.8062 37.9429 25.0804 37.7159 25.395 37.5597C25.7097 37.4035 26.0563 37.3224 26.4076 37.3227H33.6603C34.3839 37.322 35.0884 37.555 35.6689 37.9869C36.2495 38.4188 36.6751 39.0265 36.8826 39.7197C38.2313 44.2307 41.7246 53.9617 47.8994 58.8074C48.0877 58.9559 48.3139 59.0483 48.5523 59.0742C48.7906 59.1001 49.0314 59.0584 49.2472 58.9538C49.4629 58.8493 49.6449 58.6862 49.7723 58.4831C49.8997 58.28 49.9674 58.0452 49.9676 57.8055V46.4468C49.9676 44.202 48.9948 41.9561 47.4763 40.2009C47.2575 39.9491 47.1158 39.6397 47.0679 39.3097C47.0201 38.9796 47.0682 38.6427 47.2065 38.3392C47.3448 38.0357 47.5675 37.7784 47.8481 37.5979C48.1286 37.4175 48.4551 37.3216 48.7886 37.3216H59.9708C60.5466 37.3216 61.0988 37.5503 61.506 37.9574C61.9132 38.3646 62.142 38.9168 62.1421 39.4926V54.7929C62.1421 55.0143 62.2031 55.2316 62.3183 55.4207C62.4336 55.6098 62.5987 55.7636 62.7955 55.8651C62.9923 55.9667 63.2133 56.0121 63.4342 55.9965C63.6552 55.9808 63.8675 55.9046 64.048 55.7763C66.1006 54.3153 67.8585 52.1568 69.4754 49.7306C71.5102 46.6787 73.9934 41.6339 75.239 39.0157C75.4802 38.5085 75.8602 38.08 76.3349 37.7801C76.8097 37.4801 77.3598 37.3209 77.9214 37.3209H85.8314C86.1617 37.3208 86.4866 37.405 86.7752 37.5656C87.0639 37.7261 87.3067 37.9578 87.4807 38.2385C87.6548 38.5192 87.7542 38.8398 87.7697 39.1697C87.7851 39.4996 87.7161 39.8281 87.569 40.1238C85.573 44.1274 81.6853 51.4719 78.0269 55.781C77.5033 56.4006 77.2469 57.2028 77.314 58.0113C77.3812 58.8198 77.7664 59.5687 78.3851 60.0935C80.7698 62.131 84.4927 65.898 88.5064 72.1723C88.7278 72.5158 88.8526 72.9125 88.8677 73.3209C88.8827 73.7292 88.7875 74.1341 88.592 74.4929C88.3965 74.8517 88.108 75.1512 87.7567 75.36C87.4054 75.5687 87.0044 75.6789 86.5957 75.6791Z" fill="#DBA423"/>
</g>
<defs>
<clipPath id="clip0_162_36">
<rect width="113" height="113" fill="white"/>
</clipPath>
</defs>
</svg>
